<svg width="237" height="27" fill="none" xmlns="http://www.w3.org/2000/svg"><g fill-rule="evenodd" clip-rule="evenodd"><path d="M75.7514 23.8595c0 .5069-.2553.7603-.766.7603h-8.9969c-.2173 0-.3939-.0633-.5297-.19-.1358-.1268-.2037-.3058-.2037-.5372 0-.1984.0462-.3582.1385-.4794.0924-.1212.2363-.2204.4319-.2975l.7009-.2149c.1738-.0551.3096-.1598.4074-.314.0978-.1543.1467-.3747.1467-.6612v-9.5537c0-.1543-.038-.2837-.1141-.3884-.076-.1047-.2173-.2011-.4237-.2893l-.9453-.314c-.25-.1212-.4292-.2507-.5379-.3885-.1087-.1377-.163-.3057-.163-.5041 0-.1983.0679-.3609.2037-.4876l.0534-.04455c.1301-.09702.2998-.14553.5089-.14553h1.4303l-.0113-.09659c-.0305-.19319-.1069-.37862-.2292-.55631-.1629-.23691-.3477-.50413-.5541-.80165-.2065-.29752-.3912-.65289-.5542-1.06611-.1629-.41323-.2444-.92287-.2444-1.52893 0-1.44353.4889-2.5978 1.4668-3.46281C67.9444 1.43251 69.3352 1 71.1389 1c1.1626 0 2.127.18733 2.893.56198.7661.37466 1.3392.87328 1.7195 1.49587.3803.62259.5705 1.30303.5705 2.04132 0 .87053-.2255 1.52342-.6764 1.95868-.4509.43526-1.0295.65289-1.7358.65289-.7824 0-1.4126-.25344-1.8907-.76033-.4781-.50688-.7171-1.17906-.7171-2.01653V3.46281c0-.38568-.0761-.66942-.2282-.85124-.1521-.18182-.3857-.27273-.7008-.27273-.4021 0-.7063.13774-.9128.41323-.2064.27548-.3096.67217-.3096 1.19008 0 .52892.1222 1.02479.3667 1.4876.2445.46281.546.89532.9046 1.29752.3585.40221.7171.78788 1.0757 1.15703.3585.36914.6601.73278.9045 1.09091l.0697.10735c.132.21455.2201.4281.2641.64066l.0149.0867h2.414c.2499 0 .4428.05234.5786.15702.1358.10466.2037.26726.2037.48756 0 .3306-.1412.6006-.4238.81-.2825.2093-.728.314-1.3364.314h-1.1573V21.876c0 .3086.0462.5455.1386.7108.0923.1653.2417.2644.4482.2975l1.4017.2149c.2499.033.4346.1129.5541.2396.1196.1268.1793.3003.1793.5207Zm-32.0921.3802c-.9779.4738-2.1188.7107-3.4227.7107-1.3799 0-2.6159-.292-3.7079-.876-1.092-.584-1.9532-1.4298-2.5834-2.5372C33.3151 20.4298 33 19.0826 33 17.4959c0-1.5317.3287-2.9009.9861-4.1075.6573-1.2066 1.5728-2.1597 2.7463-2.8595 1.1735-.6997 2.5426-1.04956 4.1073-1.04956 1.3365 0 2.4638.19835 3.3819.59506.9182.3967 1.619.9339 2.1026 1.6116.4835.6776.7253 1.4352.7253 2.2727 0 .8815-.2527 1.573-.7579 2.0744-.5053.5013-1.1926.752-2.0618.752-.891 0-1.5674-.2562-2.0292-.7686s-.6927-1.2148-.6927-2.1074v-1.0579c0-.5399-.0978-.9476-.2934-1.2231-.1956-.2755-.4726-.4132-.8312-.4132-.3586 0-.6818.146-.9698.438-.2879.292-.5107.73-.6682 1.314-.1576.5841-.2363 1.3058-.2363 2.1653 0 1.2342.182 2.27.546 3.1075.364.8374.8611 1.4655 1.4913 1.8843.6302.4187 1.3473.6281 2.1514.6281.8041 0 1.4778-.1185 2.021-.3554.5433-.2369.9617-.6364 1.255-1.1984.163-.1542.2907-.2534.3831-.2975.0923-.0441.182-.0661.2689-.0661.1087.011.1983.0634.2689.157.0706.0937.1005.2397.0897.4381-.087 1.0798-.4184 2.033-.9943 2.8595-.5758.8264-1.3527 1.4765-2.3307 1.9504Zm16.5676-.3306c-1.2224.6722-2.6431 1.0083-4.2621 1.0083-1.5755 0-2.9582-.3279-4.148-.9835-1.1898-.6557-2.1161-1.562-2.7789-2.719-.6628-1.157-.9942-2.4959-.9942-4.0166 0-1.4545.3477-2.763 1.0431-3.9256.6954-1.1625 1.657-2.0854 2.8849-2.7686 1.2278-.68316 2.6403-1.02476 4.2376-1.02476 1.5864 0 2.9718.33058 4.1562.99176 1.1843.6611 2.1079 1.5757 2.7707 2.7438.6629 1.168.9943 2.5179.9943 4.0496 0 1.4545-.345 2.7575-1.035 3.9091-.69 1.1515-1.6462 2.0633-2.8686 2.7355Zm-3.0234-.7108c-.3368.0662-.6655-.0826-.986-.4462-.3206-.3637-.6248-.9752-.9128-1.8347-.2879-.8595-.5623-1.989-.823-3.3885-.25-1.3994-.3912-2.5509-.4238-3.4545-.0326-.9036.0326-1.5868.1956-2.0496.163-.4628.4129-.7328.7497-.8099.3369-.0661.6655.0826.9861.4463.3205.3636.6275.9752.9209 1.8347.2933.8595.5704 1.9889.8312 3.3884.2608 1.3994.4047 2.5537.4319 3.4628.0272.9091-.0435 1.595-.2119 2.0579-.1684.4628-.421.7272-.7579.7933Zm29.1584 1.4215c.5107 0 .766-.2534.766-.7603 0-.2204-.0598-.3939-.1793-.5207-.1195-.1267-.3042-.2066-.5541-.2396l-1.4017-.2149c-.2065-.0331-.3559-.1322-.4482-.2975-.0924-.1653-.1386-.4022-.1386-.7108V11.5785h1.1572c.6085 0 1.054-.1047 1.3365-.314.2825-.2094.4238-.4794.4238-.81 0-.2203-.0679-.3829-.2037-.48756-.1359-.10468-.3287-.15702-.5787-.15702h-2.414l-.0149-.0867c-.044-.21256-.132-.42611-.264-.64066l-.0697-.10735c-.2445-.35813-.546-.72177-.9046-1.09091-.3585-.36915-.7171-.75482-1.0757-1.15703-.3585-.4022-.6601-.83471-.9045-1.29752-.2445-.46281-.3668-.95868-.3668-1.4876 0-.51791.1033-.9146.3097-1.19008.2065-.27549.5107-.41323.9127-.41323.3151 0 .5488.09091.7009.27273.1521.18182.2282.46556.2282.85124v1.47107c0 .83747.239 1.50965.7171 2.01653.4781.50689 1.1083.76033 1.8907.76033.7062 0 1.2848-.21763 1.7358-.65289.4509-.43526.6764-1.08815.6764-1.95868 0-.73829-.1902-1.41873-.5705-2.04132-.3803-.62259-.9535-1.12121-1.7195-1.49587C84.6424 1.18733 83.678 1 82.5154 1c-1.8037 0-3.1946.43251-4.1725 1.29752-.9779.86501-1.4669 2.01928-1.4669 3.46281 0 .60606.0815 1.1157.2445 1.52893.163.41322.3477.76859.5542 1.06611.2064.29752.3911.56474.5541.80165.1223.17769.1987.36312.2292.55631l.0112.09659H77.039c-.2091 0-.3788.04851-.5089.14553L76.4767 10c-.1358.1267-.2037.2893-.2037.4876 0 .1984.0543.3664.163.5041.1086.1378.2879.2673.5378.3885l.9454.314c.2064.0882.3477.1846.4237.2893.0761.1047.1141.2341.1141.3884v9.5537c0 .2865-.0489.5069-.1467.6612-.0978.1542-.2336.2589-.4074.314l-.7009.2149c-.1956.0771-.3395.1763-.4319.2975-.0924.1212-.1385.281-.1385.4794 0 .2314.0679.4104.2037.5372.1358.1267.3124.19.5297.19h8.9969Zm12.7618-.4793c-1.054.5399-2.2709.8099-3.6509.8099-1.5212 0-2.8577-.3168-4.0095-.9504-1.1517-.6336-2.0509-1.5207-2.6974-2.6612-.6465-1.1405-.9698-2.46-.9698-3.9586 0-1.5758.3124-2.956.9372-4.1405.6248-1.1846 1.5294-2.1075 2.7137-2.7686 1.1844-.66118 2.6078-.99176 4.2703-.99176 1.4126 0 2.6295.27824 3.6509.83466 1.0218.5565 1.8068 1.3113 2.3548 2.2645.549.9532.823 2.0138.823 3.1818 0 .5069-.135.9064-.407 1.1984l-.065.0648c-.268.2488-.637.3732-1.109.3732h-7.4503l.016.0762c.1977.9075.5354 1.6342 1.0131 2.18.8149.9311 1.9015 1.3967 3.2597 1.3967.8693 0 1.6381-.1984 2.3065-.5951.668-.3967 1.116-.9476 1.344-1.6528.131-.1433.248-.2397.351-.2893.103-.0496.193-.0744.269-.0744.108 0 .201.0441.277.1322.076.0882.114.237.114.4463 0 1.0799-.293 2.0689-.88 2.967-.587.898-1.407 1.617-2.4613 2.157Zm-5.779-8.0688c-.0156-.2536-.0233-.5171-.0233-.7907 0-1.0358.0761-1.8512.2282-2.4463.1521-.595.3477-1.0165.5867-1.2645.2391-.2479.5053-.3719.7987-.3719.3803 0 .7361.3251 1.0675.9753.3314.6501.4971 1.73.4971 3.2396 0 .4628-.2064.6942-.6193.6942h-2.5336l-.002-.0357Zm21.3603 8.0688c-1.054.5399-2.271.8099-3.651.8099-1.521 0-2.857-.3168-4.009-.9504-1.152-.6336-2.051-1.5207-2.698-2.6612-.646-1.1405-.969-2.46-.969-3.9586 0-1.5758.312-2.956.937-4.1405.625-1.1846 1.529-2.1075 2.714-2.7686 1.184-.66118 2.607-.99176 4.27-.99176 1.412 0 2.629.27824 3.651.83466 1.021.5565 1.806 1.3113 2.355 2.2645.549.9532.823 2.0138.823 3.1818 0 .5069-.136.9064-.407 1.1984l-.065.0648c-.268.2488-.638.3732-1.109.3732h-7.451l.016.0762c.198.9075.536 1.6342 1.013 2.18.815.9311 1.902 1.3967 3.26 1.3967.869 0 1.638-.1984 2.306-.5951.669-.3967 1.117-.9476 1.345-1.6528.13-.1433.247-.2397.35-.2893.104-.0496.193-.0744.269-.0744.109 0 .201.0441.277.1322.076.0882.114.237.114.4463 0 1.0799-.293 2.0689-.88 2.967-.586.898-1.407 1.617-2.461 2.157Zm-5.779-8.0688c-.015-.2536-.023-.5171-.023-.7907 0-1.0358.076-1.8512.228-2.4463.152-.595.348-1.0165.587-1.2645.239-.2479.505-.3719.799-.3719.38 0 .736.3251 1.067.9753.331.6501.497 1.73.497 3.2396 0 .4628-.206.6942-.619.6942h-2.534l-.002-.0357Zm19.674 8.3415c-.136.1378-.334.2066-.595.2066h-8.149c-.239 0-.427-.0661-.563-.1983-.135-.1322-.203-.3141-.203-.5455 0-.1763.04-.3223.122-.438.081-.1157.193-.2231.334-.3223l.375-.1488c.141-.0661.239-.1708.293-.314.055-.1433.082-.3802.082-.7108v-8.3966c0-.2645-.03-.4546-.09-.5703-.06-.1157-.16-.2066-.301-.2727l-.424-.0496c-.152-.0882-.264-.1818-.334-.281-.071-.0992-.106-.2259-.106-.3802 0-.1763.054-.3333.163-.471.108-.1378.293-.2562.554-.3554l4.629-1.33885c.271-.1102.499-.18733.684-.23141.185-.04408.342-.06611.473-.06611.185 0 .323.06611.415.19834l.03.04796c.076.13821.129.35917.158.66277l.124 2.5684.028-.0948c.055-.1789.116-.3505.182-.5149.397-.9862.921-1.719 1.573-2.1984.652-.47929 1.364-.71896 2.135-.71896.934 0 1.652.31405 2.151.94216.5.6281.75 1.5813.75 2.8595 0 1.2672-.261 2.1983-.782 2.7934-.522.595-1.195.8925-2.021.8925-.804 0-1.399-.2038-1.785-.6115-.386-.4077-.589-.9863-.611-1.7356l-.016-.6611c-.011-.2535-.06-.4518-.147-.5951-.087-.1432-.228-.2148-.424-.2148-.195 0-.367.1019-.513.3057-.147.2039-.258.5152-.334.9339-.076.4188-.114.9532-.114 1.6033v5.8182c0 .3086.048.5537.146.7356.098.1818.25.2947.457.3388l1.222.2479c.228.0331.391.1185.489.2562.098.1378.147.3003.147.4876 0 .2204-.068.3995-.204.5372Zm13.031.5042c1.619 0 3.039-.3361 4.262-1.0083 1.222-.6722 2.178-1.584 2.868-2.7355.69-1.1516 1.035-2.4546 1.035-3.9091 0-1.5317-.331-2.8816-.994-4.0496-.663-1.1681-1.586-2.0827-2.771-2.7438-1.184-.66118-2.569-.99176-4.156-.99176-1.597 0-3.01.3416-4.238 1.02476-1.227.6832-2.189 1.6061-2.884 2.7686-.696 1.1626-1.043 2.4711-1.043 3.9256 0 1.5207.331 2.8596.994 4.0166.663 1.157 1.589 2.0633 2.779 2.719 1.189.6556 2.572.9835 4.148.9835Zm.252-2.1653c.321.3636.65.5124.986.4462.337-.0661.59-.3305.758-.7933.169-.4629.239-1.1488.212-2.0579-.027-.9091-.171-2.0634-.432-3.4628-.261-1.3995-.538-2.5289-.831-3.3884-.293-.8595-.6-1.4711-.921-1.8347-.32-.3637-.649-.5124-.986-.4463-.337.0771-.587.3471-.75.8099-.163.4628-.228 1.146-.195 2.0496.032.9036.174 2.0551.423 3.4545.261 1.3995.536 2.529.824 3.3885.288.8595.592 1.471.912 1.8347Zm20.838 2.1983c.913 0 1.663-.168 2.249-.5041.587-.3361 1.024-.7356 1.312-1.1984.288-.4628.432-.887.432-1.2727 0-.1653-.035-.303-.106-.4132-.07-.1102-.165-.1653-.285-.1653-.054 0-.103.011-.147.0331-.043.022-.081.055-.114.0991-.054.1984-.138.3361-.252.4132-.114.0772-.237.1157-.367.1157-.185 0-.323-.0633-.416-.19-.092-.1268-.138-.2948-.138-.5042v-7.3057c0-1.4546-.492-2.5813-1.475-3.3802-.984-.79891-2.524-1.19836-4.621-1.19836-1.63 0-2.991.20386-4.083.61156-1.092.4077-1.912.9284-2.461 1.562-.548.6336-.823 1.281-.823 1.9421 0 .7053.204 1.2425.611 1.6116.408.3692.997.5537 1.769.5537.945 0 1.689-.2562 2.233-.7686.543-.5124.815-1.1763.815-1.9917v-1.2562c0-.3085.095-.5482.285-.719.19-.1708.426-.2562.709-.2562.304 0 .546.1129.725.3388.179.2259.269.5317.269.9174v4.8182l-.087-.0189c-.262-.0506-.566-.0795-.911-.0868l-.175-.0018c-2.337 0-4.078.3967-5.224 1.1901-1.146.7934-1.72 1.9008-1.72 3.3223 0 1.0799.394 1.967 1.182 2.6612.788.6942 1.834 1.0413 3.137 1.0413.978 0 1.891-.2011 2.739-.6033.635-.3016 1.152-.6978 1.549-1.1885l.023-.0287.024.074c.125.3573.354.6774.688.9603l.103.0837c.603.4684 1.454.7025 2.551.7025Zm-5.615-3.1157c.266.3581.617.5372 1.052.5372l.093-.0032c.185-.0129.364-.0646.538-.155l.053-.03v-4.2415l-.081-.0248c-.185-.0496-.402-.0744-.652-.0744-.424 0-.764.1983-1.019.595-.255.3967-.383.9807-.383 1.7521 0 .7383.133 1.2865.399 1.6446ZM174.212 25c1.934 0 3.417-.4463 4.449-1.3388 1.033-.8926 1.549-2.1102 1.549-3.6529 0-.9367-.174-1.7576-.522-2.4628-.348-.7053-.956-1.3306-1.825-1.8761-.87-.5454-2.092-1.0606-3.668-1.5454-.586-.1874-1.04-.3774-1.361-.5703-.32-.1928-.54-.3994-.66-.6198-.119-.2204-.179-.4573-.179-.7108 0-.3746.136-.6776.408-.9091.271-.2314.673-.3471 1.206-.3471.739 0 1.437.248 2.094.7438.657.4959 1.383 1.3444 2.176 2.5455.206.2534.413.438.619.5537.207.1157.402.1515.587.1075.228-.0662.369-.2177.424-.4546.054-.2369.043-.5757-.033-1.0165l-.424-3.0413c-.043-.3196-.125-.5455-.244-.67773-.12-.13223-.277-.19834-.473-.19834-.174 0-.391.0606-.652.18181-.26.12122-.519.24518-.774.37186-.255.1268-.448.1901-.578.1901-.12 0-.297-.0661-.53-.1983-.234-.13225-.562-.26448-.986-.39671-.424-.13224-.973-.19835-1.646-.19835-1.12 0-2.127.20386-3.024.61156-.896.4077-1.603.989-2.119 1.7438-.516.7548-.774 1.6557-.774 2.7025 0 .9256.193 1.7355.579 2.4297.386.6943.975 1.2893 1.768 1.7852.793.4958 1.793.898 2.999 1.2066.782.2093 1.383.4215 1.801.6363.418.2149.706.4491.864.7025.158.2535.236.5345.236.843 0 .4077-.136.7438-.407 1.0083-.272.2644-.685.3967-1.239.3967-.521 0-1.019-.113-1.491-.3389-.473-.2259-.959-.6143-1.459-1.1653-.5-.5509-1.059-1.3058-1.679-2.2644-.184-.2535-.394-.4298-.627-.529-.234-.0991-.47-.0936-.709.0166-.228.0881-.375.2754-.44.5619s-.049.6392.049 1.0579l.505 3.2893c.076.3305.185.5509.326.6611.141.1102.293.1653.456.1653.185 0 .41-.0606.677-.1818l.798-.3637c.266-.1212.481-.1818.644-.1818.163 0 .378.0606.644.1818.266.1213.614.2425 1.043.3637.429.1212.97.1818 1.622.1818Zm15.451-.6198c-.717.3801-1.565.5702-2.543.5702-1.651 0-2.893-.4022-3.724-1.2066-.831-.8044-1.247-2.0716-1.247-3.8016v-7.4711c0-.2314-.022-.4077-.065-.529-.043-.1212-.152-.2203-.326-.2975l-.766-.2479c-.185-.0882-.304-.1956-.359-.3223-.054-.1267-.081-.2838-.081-.4711 0-.2314.081-.4215.244-.5702.163-.1488.364-.22318.603-.22318h.799c.098 0 .201-.03857.31-.11571.108-.07713.255-.2314.44-.4628l3.015-2.52893c.217-.26446.435-.46557.652-.60331.217-.13774.435-.20661.652-.20661.25 0 .445.07714.587.23141l.044.05469c.112.15454.168.37873.168.67258l-.001 2.95868h3.407c.239 0 .424.05234.554.15702.131.10466.196.26726.196.48756 0 .3086-.136.573-.408.7934l-.06.0456c-.274.19-.689.285-1.244.285h-2.445l.001 7.5372c0 .8264.138 1.438.415 1.8347.277.3967.682.5951 1.214.5951.229 0 .441-.0496.636-.1488.196-.0992.372-.2287.53-.3884.157-.1598.307-.3389.448-.5372.141-.1984.277-.3967.408-.5951.108-.044.203-.0248.285.0579.081.0826.117.2507.106.5041-.076.8926-.324 1.6777-.742 2.3554s-.986 1.2066-1.703 1.5868Zm10.676.5702c1.379 0 2.596-.27 3.65-.8099 1.054-.54 1.875-1.259 2.462-2.157.586-.8981.88-1.8871.88-2.967 0-.2093-.038-.3581-.114-.4463-.077-.0881-.169-.1322-.278-.1322-.076 0-.165.0248-.268.0744-.104.0496-.22.146-.351.2893-.228.7052-.676 1.2561-1.345 1.6528-.668.3967-1.437.5951-2.306.5951-1.358 0-2.445-.4656-3.26-1.3967-.477-.5458-.815-1.2725-1.013-2.18l-.016-.0762h7.451c.472 0 .841-.1244 1.109-.3732l.065-.0648c.271-.292.407-.6915.407-1.1984 0-1.168-.274-2.2286-.823-3.1818-.549-.9532-1.334-1.708-2.355-2.2645-1.022-.55642-2.238-.83466-3.651-.83466-1.662 0-3.086.33058-4.27.99176-1.185.6611-2.089 1.584-2.714 2.7686-.625 1.1845-.937 2.5647-.937 4.1405 0 1.4986.323 2.8181.97 3.9586.646 1.1405 1.545 2.0276 2.697 2.6612 1.152.6336 2.488.9504 4.01.9504Zm-2.152-9.6694c0 .2736.008.5371.023.7907l.002.0357h2.534c.413 0 .619-.2314.619-.6942 0-1.5096-.165-2.5895-.497-3.2396-.331-.6502-.687-.9753-1.067-.9753-.294 0-.56.124-.799.3719-.239.248-.435.6695-.587 1.2645-.152.5951-.228 1.4105-.228 2.4463Zm19.102 9.3388c.261 0 .459-.0688.595-.2066.136-.1377.204-.3168.204-.5372 0-.1873-.049-.3498-.147-.4876-.098-.1377-.261-.2231-.489-.2562l-1.222-.2479c-.207-.0441-.359-.157-.457-.3388-.097-.1819-.146-.427-.146-.7356v-5.8182c0-.6501.038-1.1845.114-1.6033.076-.4187.187-.73.334-.9339.147-.2038.318-.3057.513-.3057.196 0 .337.0716.424.2148.087.1433.136.3416.147.5951l.016.6611c.022.7493.225 1.3279.611 1.7356.386.4077.981.6115 1.785.6115.826 0 1.499-.2975 2.021-.8925.522-.5951.782-1.5262.782-2.7934 0-1.2782-.25-2.2314-.749-2.8595-.5-.62811-1.217-.94216-2.152-.94216-.771 0-1.483.23967-2.135.71896-.652.4794-1.176 1.2122-1.573 2.1984-.066.1644-.126.336-.182.5149l-.028.0953-.124-2.5689c-.029-.3036-.081-.52456-.158-.66277l-.029-.04796c-.093-.13223-.231-.19834-.416-.19834-.13 0-.288.02203-.473.06611-.184.04408-.413.12121-.684.23141l-4.629 1.33885c-.261.0992-.446.2176-.554.3554-.109.1377-.163.2947-.163.471 0 .1543.035.281.106.3802.07.0992.182.1928.334.281l.424.0496c.141.0661.241.157.301.2727s.09.3058.09.5703v8.3966c0 .3306-.027.5675-.082.7108-.054.1432-.152.2479-.293.314l-.375.1488c-.141.0992-.253.2066-.334.3223-.082.1157-.122.2617-.122.438 0 .2314.068.4133.203.5455.136.1322.324.1983.563.1983h8.149Zm17.163-.9586c-1.033.8925-2.516 1.3388-4.45 1.3388-.652 0-1.192-.0606-1.622-.1818-.429-.1212-.777-.2424-1.043-.3637-.266-.1212-.481-.1818-.644-.1818-.163 0-.377.0606-.643.1818l-.799.3637c-.266.1212-.492.1818-.676.1818-.163 0-.315-.0551-.457-.1653-.141-.1102-.25-.3306-.326-.6611l-.505-3.2893c-.098-.4187-.114-.7714-.049-1.0579.065-.2865.212-.4738.44-.5619.239-.1102.476-.1157.709-.0166.234.0992.443.2755.628.529.619.9586 1.179 1.7135 1.678 2.2644.5.551.987.9394 1.459 1.1653.473.2259.97.3389 1.492.3389.554 0 .967-.1323 1.238-.3967.272-.2645.408-.6006.408-1.0083 0-.3085-.079-.5895-.237-.843-.157-.2534-.445-.4876-.863-.7025-.419-.2148-1.019-.427-1.801-.6363-1.207-.3086-2.206-.7108-2.999-1.2066-.794-.4959-1.383-1.0909-1.769-1.7852-.386-.6942-.578-1.5041-.578-2.4297 0-1.0468.258-1.9477.774-2.7025.516-.7548 1.222-1.3361 2.119-1.7438.896-.4077 1.904-.61156 3.023-.61156.674 0 1.222.06611 1.646.19835.424.13223.753.26446.986.39671.234.1322.41.1983.53.1983.13 0 .323-.0633.579-.1901.255-.12668.513-.25064.774-.37186.26-.12121.478-.18181.652-.18181.195 0 .353.06611.472.19834.12.13223.201.35813.245.67773l.424 3.0413c.076.4408.086.7796.032 1.0165-.054.2369-.195.3884-.424.4546-.184.044-.38.0082-.586-.1075-.207-.1157-.413-.3003-.62-.5537-.793-1.2011-1.518-2.0496-2.176-2.5455-.657-.4958-1.355-.7438-2.094-.7438-.532 0-.934.1157-1.206.3471-.272.2315-.408.5345-.408.9091 0 .2535.06.4904.18.7108.119.2204.339.427.66.6198.32.1929.774.3829 1.361.5703 1.575.4848 2.798 1 3.667 1.5454.869.5455 1.478 1.1708 1.825 1.8761.348.7052.522 1.5261.522 2.4628 0 1.5427-.516 2.7603-1.548 3.6529Z" fill="#333D4B"/><path d="M14.4893 5.00268C10.9749 1.49113 5.76554.985619 2.87661 3.87766-.0138254 6.76821.491663 11.9778 4.00008 15.4908c.93598.9361 2.01446 1.6516 3.15293 2.1646.3735-2.1706 1.44447-4.2571 3.07039-5.9701-.53844-.192-1.09043-.354-1.66642-.5115-3.41092-.936-5.10588-3.78158-5.50187-7.11763.32751.39385.62571.80696.92303 1.21886.57686.79917 1.15041 1.59376 1.9284 2.23419 1.21025.99654 2.53868 1.38123 3.99201 1.80208.05611.01625.11245.03255.16885.04895.6885.1995 1.287.495 1.836.84005 1.443-1.05456 3.0704-1.75657 4.7504-2.04607-.5115-1.13852-1.2285-2.21554-2.1645-3.15155ZM8.54648 18.4894c.2235-2.1735 1.27648-4.2991 2.96392-5.9866 3.5144-3.51156 8.7238-4.01857 11.6128-1.125 2.8904 2.8905 2.3864 8.1001-1.1265 11.6132-1.6875 1.6875-3.8129 2.7405-5.9864 2.9655-.2895.0285-.576.0435-.8565.0435-1.8689 0-3.5384-.6555-4.7684-1.8855-1.41593-1.4145-2.06991-3.4126-1.83892-5.6251Zm5.14042 1.7835c1.1519-.879 2.3984-1.227 3.7544-1.5975 3.4109-.936 5.1044-3.7816 5.5019-7.1176-.3248.3916-.6208.802-.9159 1.211-.5786.8021-1.1538 1.5993-1.9356 2.242-1.2139.9982-2.5454 1.3835-4.0053 1.806l-.1556.0451c-3.3374.969-4.9874 3.7905-5.3684 7.0741.3288-.395.63-.8051.9296-1.2131.6503-.8855 1.2932-1.7609 2.1949-2.45Z" fill="#0E8784"/></g></svg>